<svg xmlns="http://www.w3.org/2000/svg" width="540" height="276" viewBox="0 0 540 276" role="img" aria-labelledby="title desc">
<title id="title">Daegu Golden Time</title><desc id="desc">PUBLIC DATA / GIS. Emergency-care access and policy scenario analysis in Daegu.. 150 DISTRICTS  /  POLICY SIMULATION. Python  /  GeoPandas  /  React</desc>
<rect x="1" y="1" width="538" height="274" rx="22" fill="#FFFFFF" stroke="#E5E8EB" /><rect x="1" y="1" width="538" height="66" rx="22" fill="#FFF6DE" stroke="none" /><rect x="1" y="40" width="538" height="27" rx="0" fill="#FFF6DE" stroke="none" /><g aria-label="02" fill="#AA711B" transform="translate(23 42) scale(0.0092773 -0.0092773)"><path transform="translate(0.00 0)" d="M942 748Q942 1028 889.5 1142.5Q837 1257 713 1257Q589 1257 536.0 1142.5Q483 1028 483 748Q483 465 536.0 349.0Q589 233 713 233Q836 233 889.0 349.0Q942 465 942 748ZM1327 745Q1327 374 1167.0 172.5Q1007 -29 713 -29Q418 -29 258.0 172.5Q98 374 98 745Q98 1117 258.0 1318.5Q418 1520 713 1520Q1007 1520 1167.0 1318.5Q1327 1117 1327 745Z"/><path transform="translate(1425.00 0)" d="M590 283H1247V0H162V283L707 764Q780 830 815.0 893.0Q850 956 850 1024Q850 1129 779.5 1193.0Q709 1257 592 1257Q502 1257 395.0 1218.5Q288 1180 166 1104V1432Q296 1475 423.0 1497.5Q550 1520 672 1520Q940 1520 1088.5 1402.0Q1237 1284 1237 1073Q1237 951 1174.0 845.5Q1111 740 909 563Z"/></g><g aria-label="PUBLIC DATA / GIS" fill="#AA711B" transform="translate(66 41) scale(0.0068359 -0.0068359)"><path transform="translate(0.00 0)" d="M188 1493H827Q1112 1493 1264.5 1366.5Q1417 1240 1417 1006Q1417 771 1264.5 644.5Q1112 518 827 518H573V0H188ZM573 1214V797H786Q898 797 959.0 851.5Q1020 906 1020 1006Q1020 1106 959.0 1160.0Q898 1214 786 1214Z"/><path transform="translate(1647.29 0)" d="M188 1493H573V598Q573 413 633.5 333.5Q694 254 831 254Q969 254 1029.5 333.5Q1090 413 1090 598V1493H1475V598Q1475 281 1316.0 126.0Q1157 -29 831 -29Q506 -29 347.0 126.0Q188 281 188 598Z"/><path transform="translate(3456.57 0)" d="M786 915Q877 915 924.0 955.0Q971 995 971 1073Q971 1150 924.0 1190.5Q877 1231 786 1231H573V915ZM799 262Q915 262 973.5 311.0Q1032 360 1032 459Q1032 556 974.0 604.5Q916 653 799 653H573V262ZM1157 799Q1281 763 1349.0 666.0Q1417 569 1417 428Q1417 212 1271.0 106.0Q1125 0 827 0H188V1493H766Q1077 1493 1216.5 1399.0Q1356 1305 1356 1098Q1356 989 1305.0 912.5Q1254 836 1157 799Z"/><path transform="translate(5163.86 0)" d="M188 1493H573V291H1249V0H188Z"/><path transform="translate(6615.14 0)" d="M188 1493H573V0H188Z"/><path transform="translate(7523.43 0)" d="M1372 82Q1266 27 1151.0 -1.0Q1036 -29 911 -29Q538 -29 320.0 179.5Q102 388 102 745Q102 1103 320.0 1311.5Q538 1520 911 1520Q1036 1520 1151.0 1492.0Q1266 1464 1372 1409V1100Q1265 1173 1161.0 1207.0Q1057 1241 942 1241Q736 1241 618.0 1109.0Q500 977 500 745Q500 514 618.0 382.0Q736 250 942 250Q1057 250 1161.0 284.0Q1265 318 1372 391Z"/><path transform="translate(10032.00 0)" d="M573 1202V291H711Q947 291 1071.5 408.0Q1196 525 1196 748Q1196 970 1072.0 1086.0Q948 1202 711 1202ZM188 1493H594Q934 1493 1100.5 1444.5Q1267 1396 1386 1280Q1491 1179 1542.0 1047.0Q1593 915 1593 748Q1593 579 1542.0 446.5Q1491 314 1386 213Q1266 97 1098.0 48.5Q930 0 594 0H188Z"/><path transform="translate(11878.29 0)" d="M1094 272H492L397 0H10L563 1493H1022L1575 0H1188ZM588 549H997L793 1143Z"/><path transform="translate(13609.57 0)" d="M10 1493H1386V1202H891V0H506V1202H10Z"/><path transform="translate(15152.86 0)" d="M1094 272H492L397 0H10L563 1493H1022L1575 0H1188ZM588 549H997L793 1143Z"/><path transform="translate(17743.43 0)" d="M526 1493H748L221 -190H0Z"/><path transform="translate(19497.00 0)" d="M1530 111Q1386 41 1231.0 6.0Q1076 -29 911 -29Q538 -29 320.0 179.5Q102 388 102 745Q102 1106 324.0 1313.0Q546 1520 932 1520Q1081 1520 1217.5 1492.0Q1354 1464 1475 1409V1100Q1350 1171 1226.5 1206.0Q1103 1241 979 1241Q749 1241 624.5 1112.5Q500 984 500 745Q500 508 620.0 379.0Q740 250 961 250Q1021 250 1072.5 257.5Q1124 265 1165 281V571H930V829H1530Z"/><path transform="translate(21324.29 0)" d="M188 1493H573V0H188Z"/><path transform="translate(22232.57 0)" d="M1227 1446V1130Q1104 1185 987.0 1213.0Q870 1241 766 1241Q628 1241 562.0 1203.0Q496 1165 496 1085Q496 1025 540.5 991.5Q585 958 702 934L866 901Q1115 851 1220.0 749.0Q1325 647 1325 459Q1325 212 1178.5 91.5Q1032 -29 731 -29Q589 -29 446.0 -2.0Q303 25 160 78V403Q303 327 436.5 288.5Q570 250 694 250Q820 250 887.0 292.0Q954 334 954 412Q954 482 908.5 520.0Q863 558 727 588L578 621Q354 669 250.5 774.0Q147 879 147 1057Q147 1280 291.0 1400.0Q435 1520 705 1520Q828 1520 958.0 1501.5Q1088 1483 1227 1446Z"/></g><g aria-label="Daegu Golden Time" fill="#263348" transform="translate(24 108) scale(0.0141602 -0.0141602)"><path transform="translate(0.00 0)" d="M573 1202V291H711Q947 291 1071.5 408.0Q1196 525 1196 748Q1196 970 1072.0 1086.0Q948 1202 711 1202ZM188 1493H594Q934 1493 1100.5 1444.5Q1267 1396 1386 1280Q1491 1179 1542.0 1047.0Q1593 915 1593 748Q1593 579 1542.0 446.5Q1491 314 1386 213Q1266 97 1098.0 48.5Q930 0 594 0H188Z"/><path transform="translate(1650.57 0)" d="M674 504Q562 504 505.5 466.0Q449 428 449 354Q449 286 494.5 247.5Q540 209 621 209Q722 209 791.0 281.5Q860 354 860 463V504ZM1221 639V0H860V166Q788 64 698.0 17.5Q608 -29 479 -29Q305 -29 196.5 72.5Q88 174 88 336Q88 533 223.5 625.0Q359 717 649 717H860V745Q860 830 793.0 869.5Q726 909 584 909Q469 909 370.0 886.0Q271 863 186 817V1090Q301 1118 417.0 1132.5Q533 1147 649 1147Q952 1147 1086.5 1027.5Q1221 908 1221 639Z"/><path transform="translate(2983.13 0)" d="M1290 563V461H453Q466 335 544.0 272.0Q622 209 762 209Q875 209 993.5 242.5Q1112 276 1237 344V68Q1110 20 983.0 -4.5Q856 -29 729 -29Q425 -29 256.5 125.5Q88 280 88 559Q88 833 253.5 990.0Q419 1147 709 1147Q973 1147 1131.5 988.0Q1290 829 1290 563ZM922 682Q922 784 862.5 846.5Q803 909 707 909Q603 909 538.0 850.5Q473 792 457 682Z"/><path transform="translate(4322.70 0)" d="M934 190Q860 92 771.0 46.0Q682 0 565 0Q360 0 226.0 161.5Q92 323 92 573Q92 824 226.0 984.5Q360 1145 565 1145Q682 1145 771.0 1099.0Q860 1053 934 954V1120H1294V113Q1294 -157 1123.5 -299.5Q953 -442 629 -442Q524 -442 426.0 -426.0Q328 -410 229 -377V-98Q323 -152 413.0 -178.5Q503 -205 594 -205Q770 -205 852.0 -128.0Q934 -51 934 113ZM698 887Q587 887 525.0 805.0Q463 723 463 573Q463 419 523.0 339.5Q583 260 698 260Q810 260 872.0 342.0Q934 424 934 573Q934 723 872.0 805.0Q810 887 698 887Z"/><path transform="translate(5739.26 0)" d="M160 436V1120H520V1008Q520 917 519.0 779.5Q518 642 518 596Q518 461 525.0 401.5Q532 342 549 315Q571 280 606.5 261.0Q642 242 688 242Q800 242 864.0 328.0Q928 414 928 567V1120H1286V0H928V162Q847 64 756.5 17.5Q666 -29 557 -29Q363 -29 261.5 90.0Q160 209 160 436Z"/><path transform="translate(7811.39 0)" d="M1530 111Q1386 41 1231.0 6.0Q1076 -29 911 -29Q538 -29 320.0 179.5Q102 388 102 745Q102 1106 324.0 1313.0Q546 1520 932 1520Q1081 1520 1217.5 1492.0Q1354 1464 1475 1409V1100Q1350 1171 1226.5 1206.0Q1103 1241 979 1241Q749 1241 624.5 1112.5Q500 984 500 745Q500 508 620.0 379.0Q740 250 961 250Q1021 250 1072.5 257.5Q1124 265 1165 281V571H930V829H1530Z"/><path transform="translate(9442.96 0)" d="M705 891Q586 891 523.5 805.5Q461 720 461 559Q461 398 523.5 312.5Q586 227 705 227Q822 227 884.0 312.5Q946 398 946 559Q946 720 884.0 805.5Q822 891 705 891ZM705 1147Q994 1147 1156.5 991.0Q1319 835 1319 559Q1319 283 1156.5 127.0Q994 -29 705 -29Q415 -29 251.5 127.0Q88 283 88 559Q88 835 251.5 991.0Q415 1147 705 1147Z"/><path transform="translate(10800.52 0)" d="M172 1556H530V0H172Z"/><path transform="translate(11453.09 0)" d="M934 956V1556H1294V0H934V162Q860 63 771.0 17.0Q682 -29 565 -29Q358 -29 225.0 135.5Q92 300 92 559Q92 818 225.0 982.5Q358 1147 565 1147Q681 1147 770.5 1100.5Q860 1054 934 956ZM698 231Q813 231 873.5 315.0Q934 399 934 559Q934 719 873.5 803.0Q813 887 698 887Q584 887 523.5 803.0Q463 719 463 559Q463 399 523.5 315.0Q584 231 698 231Z"/><path transform="translate(12869.66 0)" d="M1290 563V461H453Q466 335 544.0 272.0Q622 209 762 209Q875 209 993.5 242.5Q1112 276 1237 344V68Q1110 20 983.0 -4.5Q856 -29 729 -29Q425 -29 256.5 125.5Q88 280 88 559Q88 833 253.5 990.0Q419 1147 709 1147Q973 1147 1131.5 988.0Q1290 829 1290 563ZM922 682Q922 784 862.5 846.5Q803 909 707 909Q603 909 538.0 850.5Q473 792 457 682Z"/><path transform="translate(14209.22 0)" d="M1298 682V0H938V111V522Q938 667 931.5 722.0Q925 777 909 803Q888 838 852.0 857.5Q816 877 770 877Q658 877 594.0 790.5Q530 704 530 551V0H172V1120H530V956Q611 1054 702.0 1100.5Q793 1147 903 1147Q1097 1147 1197.5 1028.0Q1298 909 1298 682Z"/><path transform="translate(16281.35 0)" d="M10 1493H1386V1202H891V0H506V1202H10Z"/><path transform="translate(17628.92 0)" d="M172 1120H530V0H172ZM172 1556H530V1264H172Z"/><path transform="translate(18281.48 0)" d="M1210 934Q1278 1038 1371.5 1092.5Q1465 1147 1577 1147Q1770 1147 1871.0 1028.0Q1972 909 1972 682V0H1612V584Q1613 597 1613.5 611.0Q1614 625 1614 651Q1614 770 1579.0 823.5Q1544 877 1466 877Q1364 877 1308.5 793.0Q1253 709 1251 550V0H891V584Q891 770 859.0 823.5Q827 877 745 877Q642 877 586.0 792.5Q530 708 530 551V0H170V1120H530V956Q596 1051 681.5 1099.0Q767 1147 870 1147Q986 1147 1075.0 1091.0Q1164 1035 1210 934Z"/><path transform="translate(20366.05 0)" d="M1290 563V461H453Q466 335 544.0 272.0Q622 209 762 209Q875 209 993.5 242.5Q1112 276 1237 344V68Q1110 20 983.0 -4.5Q856 -29 729 -29Q425 -29 256.5 125.5Q88 280 88 559Q88 833 253.5 990.0Q419 1147 709 1147Q973 1147 1131.5 988.0Q1290 829 1290 563ZM922 682Q922 784 862.5 846.5Q803 909 707 909Q603 909 538.0 850.5Q473 792 457 682Z"/></g><g aria-label="Emergency-care access and" fill="#586579" transform="translate(25 148) scale(0.0092773 -0.0092773)"><path transform="translate(0.00 0)" d="M201 1493H1145V1323H403V881H1114V711H403V170H1163V0H201Z"/><path transform="translate(1294.00 0)" d="M1065 905Q1134 1029 1230.0 1088.0Q1326 1147 1456 1147Q1631 1147 1726.0 1024.5Q1821 902 1821 676V0H1636V670Q1636 831 1579.0 909.0Q1522 987 1405 987Q1262 987 1179.0 892.0Q1096 797 1096 633V0H911V670Q911 832 854.0 909.5Q797 987 678 987Q537 987 454.0 891.5Q371 796 371 633V0H186V1120H371V946Q434 1049 522.0 1098.0Q610 1147 731 1147Q853 1147 938.5 1085.0Q1024 1023 1065 905Z"/><path transform="translate(3289.00 0)" d="M1151 606V516H305Q317 326 419.5 226.5Q522 127 705 127Q811 127 910.5 153.0Q1010 179 1108 231V57Q1009 15 905.0 -7.0Q801 -29 694 -29Q426 -29 269.5 127.0Q113 283 113 549Q113 824 261.5 985.5Q410 1147 662 1147Q888 1147 1019.5 1001.5Q1151 856 1151 606ZM967 660Q965 811 882.5 901.0Q800 991 664 991Q510 991 417.5 904.0Q325 817 311 659Z"/><path transform="translate(4549.00 0)" d="M842 948Q811 966 774.5 974.5Q738 983 694 983Q538 983 454.5 881.5Q371 780 371 590V0H186V1120H371V946Q429 1048 522.0 1097.5Q615 1147 748 1147Q767 1147 790.0 1144.5Q813 1142 841 1137Z"/><path transform="translate(5391.00 0)" d="M930 573Q930 773 847.5 883.0Q765 993 616 993Q468 993 385.5 883.0Q303 773 303 573Q303 374 385.5 264.0Q468 154 616 154Q765 154 847.5 264.0Q930 374 930 573ZM1114 139Q1114 -147 987.0 -286.5Q860 -426 598 -426Q501 -426 415.0 -411.5Q329 -397 248 -367V-188Q329 -232 408.0 -253.0Q487 -274 569 -274Q750 -274 840.0 -179.5Q930 -85 930 106V197Q873 98 784.0 49.0Q695 0 571 0Q365 0 239.0 157.0Q113 314 113 573Q113 833 239.0 990.0Q365 1147 571 1147Q695 1147 784.0 1098.0Q873 1049 930 950V1120H1114Z"/><path transform="translate(6691.00 0)" d="M1151 606V516H305Q317 326 419.5 226.5Q522 127 705 127Q811 127 910.5 153.0Q1010 179 1108 231V57Q1009 15 905.0 -7.0Q801 -29 694 -29Q426 -29 269.5 127.0Q113 283 113 549Q113 824 261.5 985.5Q410 1147 662 1147Q888 1147 1019.5 1001.5Q1151 856 1151 606ZM967 660Q965 811 882.5 901.0Q800 991 664 991Q510 991 417.5 904.0Q325 817 311 659Z"/><path transform="translate(7951.00 0)" d="M1124 676V0H940V670Q940 829 878.0 908.0Q816 987 692 987Q543 987 457.0 892.0Q371 797 371 633V0H186V1120H371V946Q437 1047 526.5 1097.0Q616 1147 733 1147Q926 1147 1025.0 1027.5Q1124 908 1124 676Z"/><path transform="translate(9249.00 0)" d="M999 1077V905Q921 948 842.5 969.5Q764 991 684 991Q505 991 406.0 877.5Q307 764 307 559Q307 354 406.0 240.5Q505 127 684 127Q764 127 842.5 148.5Q921 170 999 213V43Q922 7 839.5 -11.0Q757 -29 664 -29Q411 -29 262.0 130.0Q113 289 113 559Q113 833 263.5 990.0Q414 1147 676 1147Q761 1147 842.0 1129.5Q923 1112 999 1077Z"/><path transform="translate(10375.00 0)" d="M659 -104Q581 -304 507.0 -365.0Q433 -426 309 -426H162V-272H270Q346 -272 388.0 -236.0Q430 -200 481 -66L514 18L61 1120H256L606 244L956 1120H1151Z"/><path transform="translate(11587.00 0)" d="M100 643H639V479H100Z"/><path transform="translate(12326.00 0)" d="M999 1077V905Q921 948 842.5 969.5Q764 991 684 991Q505 991 406.0 877.5Q307 764 307 559Q307 354 406.0 240.5Q505 127 684 127Q764 127 842.5 148.5Q921 170 999 213V43Q922 7 839.5 -11.0Q757 -29 664 -29Q411 -29 262.0 130.0Q113 289 113 559Q113 833 263.5 990.0Q414 1147 676 1147Q761 1147 842.0 1129.5Q923 1112 999 1077Z"/><path transform="translate(13452.00 0)" d="M702 563Q479 563 393.0 512.0Q307 461 307 338Q307 240 371.5 182.5Q436 125 547 125Q700 125 792.5 233.5Q885 342 885 522V563ZM1069 639V0H885V170Q822 68 728.0 19.5Q634 -29 498 -29Q326 -29 224.5 67.5Q123 164 123 326Q123 515 249.5 611.0Q376 707 627 707H885V725Q885 852 801.5 921.5Q718 991 567 991Q471 991 380.0 968.0Q289 945 205 899V1069Q306 1108 401.0 1127.5Q496 1147 586 1147Q829 1147 949.0 1021.0Q1069 895 1069 639Z"/><path transform="translate(14707.00 0)" d="M842 948Q811 966 774.5 974.5Q738 983 694 983Q538 983 454.5 881.5Q371 780 371 590V0H186V1120H371V946Q429 1048 522.0 1097.5Q615 1147 748 1147Q767 1147 790.0 1144.5Q813 1142 841 1137Z"/><path transform="translate(15549.00 0)" d="M1151 606V516H305Q317 326 419.5 226.5Q522 127 705 127Q811 127 910.5 153.0Q1010 179 1108 231V57Q1009 15 905.0 -7.0Q801 -29 694 -29Q426 -29 269.5 127.0Q113 283 113 549Q113 824 261.5 985.5Q410 1147 662 1147Q888 1147 1019.5 1001.5Q1151 856 1151 606ZM967 660Q965 811 882.5 901.0Q800 991 664 991Q510 991 417.5 904.0Q325 817 311 659Z"/><path transform="translate(17460.00 0)" d="M702 563Q479 563 393.0 512.0Q307 461 307 338Q307 240 371.5 182.5Q436 125 547 125Q700 125 792.5 233.5Q885 342 885 522V563ZM1069 639V0H885V170Q822 68 728.0 19.5Q634 -29 498 -29Q326 -29 224.5 67.5Q123 164 123 326Q123 515 249.5 611.0Q376 707 627 707H885V725Q885 852 801.5 921.5Q718 991 567 991Q471 991 380.0 968.0Q289 945 205 899V1069Q306 1108 401.0 1127.5Q496 1147 586 1147Q829 1147 949.0 1021.0Q1069 895 1069 639Z"/><path transform="translate(18715.00 0)" d="M999 1077V905Q921 948 842.5 969.5Q764 991 684 991Q505 991 406.0 877.5Q307 764 307 559Q307 354 406.0 240.5Q505 127 684 127Q764 127 842.5 148.5Q921 170 999 213V43Q922 7 839.5 -11.0Q757 -29 664 -29Q411 -29 262.0 130.0Q113 289 113 559Q113 833 263.5 990.0Q414 1147 676 1147Q761 1147 842.0 1129.5Q923 1112 999 1077Z"/><path transform="translate(19841.00 0)" d="M999 1077V905Q921 948 842.5 969.5Q764 991 684 991Q505 991 406.0 877.5Q307 764 307 559Q307 354 406.0 240.5Q505 127 684 127Q764 127 842.5 148.5Q921 170 999 213V43Q922 7 839.5 -11.0Q757 -29 664 -29Q411 -29 262.0 130.0Q113 289 113 559Q113 833 263.5 990.0Q414 1147 676 1147Q761 1147 842.0 1129.5Q923 1112 999 1077Z"/><path transform="translate(20967.00 0)" d="M1151 606V516H305Q317 326 419.5 226.5Q522 127 705 127Q811 127 910.5 153.0Q1010 179 1108 231V57Q1009 15 905.0 -7.0Q801 -29 694 -29Q426 -29 269.5 127.0Q113 283 113 549Q113 824 261.5 985.5Q410 1147 662 1147Q888 1147 1019.5 1001.5Q1151 856 1151 606ZM967 660Q965 811 882.5 901.0Q800 991 664 991Q510 991 417.5 904.0Q325 817 311 659Z"/><path transform="translate(22227.00 0)" d="M907 1087V913Q829 953 745.0 973.0Q661 993 571 993Q434 993 365.5 951.0Q297 909 297 825Q297 761 346.0 724.5Q395 688 543 655L606 641Q802 599 884.5 522.5Q967 446 967 309Q967 153 843.5 62.0Q720 -29 504 -29Q414 -29 316.5 -11.5Q219 6 111 41V231Q213 178 312.0 151.5Q411 125 508 125Q638 125 708.0 169.5Q778 214 778 295Q778 370 727.5 410.0Q677 450 506 487L442 502Q271 538 195.0 612.5Q119 687 119 817Q119 975 231.0 1061.0Q343 1147 549 1147Q651 1147 741.0 1132.0Q831 1117 907 1087Z"/><path transform="translate(23294.00 0)" d="M907 1087V913Q829 953 745.0 973.0Q661 993 571 993Q434 993 365.5 951.0Q297 909 297 825Q297 761 346.0 724.5Q395 688 543 655L606 641Q802 599 884.5 522.5Q967 446 967 309Q967 153 843.5 62.0Q720 -29 504 -29Q414 -29 316.5 -11.5Q219 6 111 41V231Q213 178 312.0 151.5Q411 125 508 125Q638 125 708.0 169.5Q778 214 778 295Q778 370 727.5 410.0Q677 450 506 487L442 502Q271 538 195.0 612.5Q119 687 119 817Q119 975 231.0 1061.0Q343 1147 549 1147Q651 1147 741.0 1132.0Q831 1117 907 1087Z"/><path transform="translate(25012.00 0)" d="M702 563Q479 563 393.0 512.0Q307 461 307 338Q307 240 371.5 182.5Q436 125 547 125Q700 125 792.5 233.5Q885 342 885 522V563ZM1069 639V0H885V170Q822 68 728.0 19.5Q634 -29 498 -29Q326 -29 224.5 67.5Q123 164 123 326Q123 515 249.5 611.0Q376 707 627 707H885V725Q885 852 801.5 921.5Q718 991 567 991Q471 991 380.0 968.0Q289 945 205 899V1069Q306 1108 401.0 1127.5Q496 1147 586 1147Q829 1147 949.0 1021.0Q1069 895 1069 639Z"/><path transform="translate(26267.00 0)" d="M1124 676V0H940V670Q940 829 878.0 908.0Q816 987 692 987Q543 987 457.0 892.0Q371 797 371 633V0H186V1120H371V946Q437 1047 526.5 1097.0Q616 1147 733 1147Q926 1147 1025.0 1027.5Q1124 908 1124 676Z"/><path transform="translate(27565.00 0)" d="M930 950V1556H1114V0H930V168Q872 68 783.5 19.5Q695 -29 571 -29Q368 -29 240.5 133.0Q113 295 113 559Q113 823 240.5 985.0Q368 1147 571 1147Q695 1147 783.5 1098.5Q872 1050 930 950ZM303 559Q303 356 386.5 240.5Q470 125 616 125Q762 125 846.0 240.5Q930 356 930 559Q930 762 846.0 877.5Q762 993 616 993Q470 993 386.5 877.5Q303 762 303 559Z"/></g><g aria-label="policy scenario analysis in Daegu." fill="#586579" transform="translate(25 176) scale(0.0092773 -0.0092773)"><path transform="translate(0.00 0)" d="M371 168V-426H186V1120H371V950Q429 1050 517.5 1098.5Q606 1147 729 1147Q933 1147 1060.5 985.0Q1188 823 1188 559Q1188 295 1060.5 133.0Q933 -29 729 -29Q606 -29 517.5 19.5Q429 68 371 168ZM997 559Q997 762 913.5 877.5Q830 993 684 993Q538 993 454.5 877.5Q371 762 371 559Q371 356 454.5 240.5Q538 125 684 125Q830 125 913.5 240.5Q997 356 997 559Z"/><path transform="translate(1300.00 0)" d="M627 991Q479 991 393.0 875.5Q307 760 307 559Q307 358 392.5 242.5Q478 127 627 127Q774 127 860.0 243.0Q946 359 946 559Q946 758 860.0 874.5Q774 991 627 991ZM627 1147Q867 1147 1004.0 991.0Q1141 835 1141 559Q1141 284 1004.0 127.5Q867 -29 627 -29Q386 -29 249.5 127.5Q113 284 113 559Q113 835 249.5 991.0Q386 1147 627 1147Z"/><path transform="translate(2553.00 0)" d="M193 1556H377V0H193Z"/><path transform="translate(3122.00 0)" d="M193 1120H377V0H193ZM193 1556H377V1323H193Z"/><path transform="translate(3691.00 0)" d="M999 1077V905Q921 948 842.5 969.5Q764 991 684 991Q505 991 406.0 877.5Q307 764 307 559Q307 354 406.0 240.5Q505 127 684 127Q764 127 842.5 148.5Q921 170 999 213V43Q922 7 839.5 -11.0Q757 -29 664 -29Q411 -29 262.0 130.0Q113 289 113 559Q113 833 263.5 990.0Q414 1147 676 1147Q761 1147 842.0 1129.5Q923 1112 999 1077Z"/><path transform="translate(4817.00 0)" d="M659 -104Q581 -304 507.0 -365.0Q433 -426 309 -426H162V-272H270Q346 -272 388.0 -236.0Q430 -200 481 -66L514 18L61 1120H256L606 244L956 1120H1151Z"/><path transform="translate(6680.00 0)" d="M907 1087V913Q829 953 745.0 973.0Q661 993 571 993Q434 993 365.5 951.0Q297 909 297 825Q297 761 346.0 724.5Q395 688 543 655L606 641Q802 599 884.5 522.5Q967 446 967 309Q967 153 843.5 62.0Q720 -29 504 -29Q414 -29 316.5 -11.5Q219 6 111 41V231Q213 178 312.0 151.5Q411 125 508 125Q638 125 708.0 169.5Q778 214 778 295Q778 370 727.5 410.0Q677 450 506 487L442 502Q271 538 195.0 612.5Q119 687 119 817Q119 975 231.0 1061.0Q343 1147 549 1147Q651 1147 741.0 1132.0Q831 1117 907 1087Z"/><path transform="translate(7747.00 0)" d="M999 1077V905Q921 948 842.5 969.5Q764 991 684 991Q505 991 406.0 877.5Q307 764 307 559Q307 354 406.0 240.5Q505 127 684 127Q764 127 842.5 148.5Q921 170 999 213V43Q922 7 839.5 -11.0Q757 -29 664 -29Q411 -29 262.0 130.0Q113 289 113 559Q113 833 263.5 990.0Q414 1147 676 1147Q761 1147 842.0 1129.5Q923 1112 999 1077Z"/><path transform="translate(8873.00 0)" d="M1151 606V516H305Q317 326 419.5 226.5Q522 127 705 127Q811 127 910.5 153.0Q1010 179 1108 231V57Q1009 15 905.0 -7.0Q801 -29 694 -29Q426 -29 269.5 127.0Q113 283 113 549Q113 824 261.5 985.5Q410 1147 662 1147Q888 1147 1019.5 1001.5Q1151 856 1151 606ZM967 660Q965 811 882.5 901.0Q800 991 664 991Q510 991 417.5 904.0Q325 817 311 659Z"/><path transform="translate(10133.00 0)" d="M1124 676V0H940V670Q940 829 878.0 908.0Q816 987 692 987Q543 987 457.0 892.0Q371 797 371 633V0H186V1120H371V946Q437 1047 526.5 1097.0Q616 1147 733 1147Q926 1147 1025.0 1027.5Q1124 908 1124 676Z"/><path transform="translate(11431.00 0)" d="M702 563Q479 563 393.0 512.0Q307 461 307 338Q307 240 371.5 182.5Q436 125 547 125Q700 125 792.5 233.5Q885 342 885 522V563ZM1069 639V0H885V170Q822 68 728.0 19.5Q634 -29 498 -29Q326 -29 224.5 67.5Q123 164 123 326Q123 515 249.5 611.0Q376 707 627 707H885V725Q885 852 801.5 921.5Q718 991 567 991Q471 991 380.0 968.0Q289 945 205 899V1069Q306 1108 401.0 1127.5Q496 1147 586 1147Q829 1147 949.0 1021.0Q1069 895 1069 639Z"/><path transform="translate(12686.00 0)" d="M842 948Q811 966 774.5 974.5Q738 983 694 983Q538 983 454.5 881.5Q371 780 371 590V0H186V1120H371V946Q429 1048 522.0 1097.5Q615 1147 748 1147Q767 1147 790.0 1144.5Q813 1142 841 1137Z"/><path transform="translate(13528.00 0)" d="M193 1120H377V0H193ZM193 1556H377V1323H193Z"/><path transform="translate(14097.00 0)" d="M627 991Q479 991 393.0 875.5Q307 760 307 559Q307 358 392.5 242.5Q478 127 627 127Q774 127 860.0 243.0Q946 359 946 559Q946 758 860.0 874.5Q774 991 627 991ZM627 1147Q867 1147 1004.0 991.0Q1141 835 1141 559Q1141 284 1004.0 127.5Q867 -29 627 -29Q386 -29 249.5 127.5Q113 284 113 559Q113 835 249.5 991.0Q386 1147 627 1147Z"/><path transform="translate(16001.00 0)" d="M702 563Q479 563 393.0 512.0Q307 461 307 338Q307 240 371.5 182.5Q436 125 547 125Q700 125 792.5 233.5Q885 342 885 522V563ZM1069 639V0H885V170Q822 68 728.0 19.5Q634 -29 498 -29Q326 -29 224.5 67.5Q123 164 123 326Q123 515 249.5 611.0Q376 707 627 707H885V725Q885 852 801.5 921.5Q718 991 567 991Q471 991 380.0 968.0Q289 945 205 899V1069Q306 1108 401.0 1127.5Q496 1147 586 1147Q829 1147 949.0 1021.0Q1069 895 1069 639Z"/><path transform="translate(17256.00 0)" d="M1124 676V0H940V670Q940 829 878.0 908.0Q816 987 692 987Q543 987 457.0 892.0Q371 797 371 633V0H186V1120H371V946Q437 1047 526.5 1097.0Q616 1147 733 1147Q926 1147 1025.0 1027.5Q1124 908 1124 676Z"/><path transform="translate(18554.00 0)" d="M702 563Q479 563 393.0 512.0Q307 461 307 338Q307 240 371.5 182.5Q436 125 547 125Q700 125 792.5 233.5Q885 342 885 522V563ZM1069 639V0H885V170Q822 68 728.0 19.5Q634 -29 498 -29Q326 -29 224.5 67.5Q123 164 123 326Q123 515 249.5 611.0Q376 707 627 707H885V725Q885 852 801.5 921.5Q718 991 567 991Q471 991 380.0 968.0Q289 945 205 899V1069Q306 1108 401.0 1127.5Q496 1147 586 1147Q829 1147 949.0 1021.0Q1069 895 1069 639Z"/><path transform="translate(19809.00 0)" d="M193 1556H377V0H193Z"/><path transform="translate(20378.00 0)" d="M659 -104Q581 -304 507.0 -365.0Q433 -426 309 -426H162V-272H270Q346 -272 388.0 -236.0Q430 -200 481 -66L514 18L61 1120H256L606 244L956 1120H1151Z"/><path transform="translate(21590.00 0)" d="M907 1087V913Q829 953 745.0 973.0Q661 993 571 993Q434 993 365.5 951.0Q297 909 297 825Q297 761 346.0 724.5Q395 688 543 655L606 641Q802 599 884.5 522.5Q967 446 967 309Q967 153 843.5 62.0Q720 -29 504 -29Q414 -29 316.5 -11.5Q219 6 111 41V231Q213 178 312.0 151.5Q411 125 508 125Q638 125 708.0 169.5Q778 214 778 295Q778 370 727.5 410.0Q677 450 506 487L442 502Q271 538 195.0 612.5Q119 687 119 817Q119 975 231.0 1061.0Q343 1147 549 1147Q651 1147 741.0 1132.0Q831 1117 907 1087Z"/><path transform="translate(22657.00 0)" d="M193 1120H377V0H193ZM193 1556H377V1323H193Z"/><path transform="translate(23226.00 0)" d="M907 1087V913Q829 953 745.0 973.0Q661 993 571 993Q434 993 365.5 951.0Q297 909 297 825Q297 761 346.0 724.5Q395 688 543 655L606 641Q802 599 884.5 522.5Q967 446 967 309Q967 153 843.5 62.0Q720 -29 504 -29Q414 -29 316.5 -11.5Q219 6 111 41V231Q213 178 312.0 151.5Q411 125 508 125Q638 125 708.0 169.5Q778 214 778 295Q778 370 727.5 410.0Q677 450 506 487L442 502Q271 538 195.0 612.5Q119 687 119 817Q119 975 231.0 1061.0Q343 1147 549 1147Q651 1147 741.0 1132.0Q831 1117 907 1087Z"/><path transform="translate(24944.00 0)" d="M193 1120H377V0H193ZM193 1556H377V1323H193Z"/><path transform="translate(25513.00 0)" d="M1124 676V0H940V670Q940 829 878.0 908.0Q816 987 692 987Q543 987 457.0 892.0Q371 797 371 633V0H186V1120H371V946Q437 1047 526.5 1097.0Q616 1147 733 1147Q926 1147 1025.0 1027.5Q1124 908 1124 676Z"/><path transform="translate(27462.00 0)" d="M403 1327V166H647Q956 166 1099.5 306.0Q1243 446 1243 748Q1243 1048 1099.5 1187.5Q956 1327 647 1327ZM201 1493H616Q1050 1493 1253.0 1312.5Q1456 1132 1456 748Q1456 362 1252.0 181.0Q1048 0 616 0H201Z"/><path transform="translate(29039.00 0)" d="M702 563Q479 563 393.0 512.0Q307 461 307 338Q307 240 371.5 182.5Q436 125 547 125Q700 125 792.5 233.5Q885 342 885 522V563ZM1069 639V0H885V170Q822 68 728.0 19.5Q634 -29 498 -29Q326 -29 224.5 67.5Q123 164 123 326Q123 515 249.5 611.0Q376 707 627 707H885V725Q885 852 801.5 921.5Q718 991 567 991Q471 991 380.0 968.0Q289 945 205 899V1069Q306 1108 401.0 1127.5Q496 1147 586 1147Q829 1147 949.0 1021.0Q1069 895 1069 639Z"/><path transform="translate(30294.00 0)" d="M1151 606V516H305Q317 326 419.5 226.5Q522 127 705 127Q811 127 910.5 153.0Q1010 179 1108 231V57Q1009 15 905.0 -7.0Q801 -29 694 -29Q426 -29 269.5 127.0Q113 283 113 549Q113 824 261.5 985.5Q410 1147 662 1147Q888 1147 1019.5 1001.5Q1151 856 1151 606ZM967 660Q965 811 882.5 901.0Q800 991 664 991Q510 991 417.5 904.0Q325 817 311 659Z"/><path transform="translate(31554.00 0)" d="M930 573Q930 773 847.5 883.0Q765 993 616 993Q468 993 385.5 883.0Q303 773 303 573Q303 374 385.5 264.0Q468 154 616 154Q765 154 847.5 264.0Q930 374 930 573ZM1114 139Q1114 -147 987.0 -286.5Q860 -426 598 -426Q501 -426 415.0 -411.5Q329 -397 248 -367V-188Q329 -232 408.0 -253.0Q487 -274 569 -274Q750 -274 840.0 -179.5Q930 -85 930 106V197Q873 98 784.0 49.0Q695 0 571 0Q365 0 239.0 157.0Q113 314 113 573Q113 833 239.0 990.0Q365 1147 571 1147Q695 1147 784.0 1098.0Q873 1049 930 950V1120H1114Z"/><path transform="translate(32854.00 0)" d="M174 442V1120H358V449Q358 290 420.0 210.5Q482 131 606 131Q755 131 841.5 226.0Q928 321 928 485V1120H1112V0H928V172Q861 70 772.5 20.5Q684 -29 567 -29Q374 -29 274.0 91.0Q174 211 174 442ZM637 1147Z"/><path transform="translate(34152.00 0)" d="M219 254H430V0H219Z"/></g><rect x="24" y="195" width="460" height="32" rx="16" fill="#FFF6DE" stroke="none" /><g aria-label="150 DISTRICTS  /  POLICY SIMULATION" fill="#AA711B" transform="translate(38 217) scale(0.0068359 -0.0068359)"><path transform="translate(0.00 0)" d="M240 266H580V1231L231 1159V1421L578 1493H944V266H1284V0H240Z"/><path transform="translate(1425.00 0)" d="M217 1493H1174V1210H524V979Q568 991 612.5 997.5Q657 1004 705 1004Q978 1004 1130.0 867.5Q1282 731 1282 487Q1282 245 1116.5 108.0Q951 -29 657 -29Q530 -29 405.5 -4.5Q281 20 158 70V373Q280 303 389.5 268.0Q499 233 596 233Q736 233 816.5 301.5Q897 370 897 487Q897 605 816.5 673.0Q736 741 596 741Q513 741 419.0 719.5Q325 698 217 653Z"/><path transform="translate(2850.00 0)" d="M942 748Q942 1028 889.5 1142.5Q837 1257 713 1257Q589 1257 536.0 1142.5Q483 1028 483 748Q483 465 536.0 349.0Q589 233 713 233Q836 233 889.0 349.0Q942 465 942 748ZM1327 745Q1327 374 1167.0 172.5Q1007 -29 713 -29Q418 -29 258.0 172.5Q98 374 98 745Q98 1117 258.0 1318.5Q418 1520 713 1520Q1007 1520 1167.0 1318.5Q1327 1117 1327 745Z"/><path transform="translate(4988.00 0)" d="M573 1202V291H711Q947 291 1071.5 408.0Q1196 525 1196 748Q1196 970 1072.0 1086.0Q948 1202 711 1202ZM188 1493H594Q934 1493 1100.5 1444.5Q1267 1396 1386 1280Q1491 1179 1542.0 1047.0Q1593 915 1593 748Q1593 579 1542.0 446.5Q1491 314 1386 213Q1266 97 1098.0 48.5Q930 0 594 0H188Z"/><path transform="translate(6688.00 0)" d="M188 1493H573V0H188Z"/><path transform="translate(7450.00 0)" d="M1227 1446V1130Q1104 1185 987.0 1213.0Q870 1241 766 1241Q628 1241 562.0 1203.0Q496 1165 496 1085Q496 1025 540.5 991.5Q585 958 702 934L866 901Q1115 851 1220.0 749.0Q1325 647 1325 459Q1325 212 1178.5 91.5Q1032 -29 731 -29Q589 -29 446.0 -2.0Q303 25 160 78V403Q303 327 436.5 288.5Q570 250 694 250Q820 250 887.0 292.0Q954 334 954 412Q954 482 908.5 520.0Q863 558 727 588L578 621Q354 669 250.5 774.0Q147 879 147 1057Q147 1280 291.0 1400.0Q435 1520 705 1520Q828 1520 958.0 1501.5Q1088 1483 1227 1446Z"/><path transform="translate(8925.00 0)" d="M10 1493H1386V1202H891V0H506V1202H10Z"/><path transform="translate(10322.00 0)" d="M735 831Q856 831 908.5 876.0Q961 921 961 1024Q961 1126 908.5 1170.0Q856 1214 735 1214H573V831ZM573 565V0H188V1493H776Q1071 1493 1208.5 1394.0Q1346 1295 1346 1081Q1346 933 1274.5 838.0Q1203 743 1059 698Q1138 680 1200.5 616.5Q1263 553 1327 424L1536 0H1126L944 371Q889 483 832.5 524.0Q776 565 682 565Z"/><path transform="translate(11899.00 0)" d="M188 1493H573V0H188Z"/><path transform="translate(12661.00 0)" d="M1372 82Q1266 27 1151.0 -1.0Q1036 -29 911 -29Q538 -29 320.0 179.5Q102 388 102 745Q102 1103 320.0 1311.5Q538 1520 911 1520Q1036 1520 1151.0 1492.0Q1266 1464 1372 1409V1100Q1265 1173 1161.0 1207.0Q1057 1241 942 1241Q736 1241 618.0 1109.0Q500 977 500 745Q500 514 618.0 382.0Q736 250 942 250Q1057 250 1161.0 284.0Q1265 318 1372 391Z"/><path transform="translate(14164.00 0)" d="M10 1493H1386V1202H891V0H506V1202H10Z"/><path transform="translate(15561.00 0)" d="M1227 1446V1130Q1104 1185 987.0 1213.0Q870 1241 766 1241Q628 1241 562.0 1203.0Q496 1165 496 1085Q496 1025 540.5 991.5Q585 958 702 934L866 901Q1115 851 1220.0 749.0Q1325 647 1325 459Q1325 212 1178.5 91.5Q1032 -29 731 -29Q589 -29 446.0 -2.0Q303 25 160 78V403Q303 327 436.5 288.5Q570 250 694 250Q820 250 887.0 292.0Q954 334 954 412Q954 482 908.5 520.0Q863 558 727 588L578 621Q354 669 250.5 774.0Q147 879 147 1057Q147 1280 291.0 1400.0Q435 1520 705 1520Q828 1520 958.0 1501.5Q1088 1483 1227 1446Z"/><path transform="translate(18462.00 0)" d="M526 1493H748L221 -190H0Z"/><path transform="translate(20636.00 0)" d="M188 1493H827Q1112 1493 1264.5 1366.5Q1417 1240 1417 1006Q1417 771 1264.5 644.5Q1112 518 827 518H573V0H188ZM573 1214V797H786Q898 797 959.0 851.5Q1020 906 1020 1006Q1020 1106 959.0 1160.0Q898 1214 786 1214Z"/><path transform="translate(22137.00 0)" d="M870 1241Q694 1241 597.0 1111.0Q500 981 500 745Q500 510 597.0 380.0Q694 250 870 250Q1047 250 1144.0 380.0Q1241 510 1241 745Q1241 981 1144.0 1111.0Q1047 1241 870 1241ZM870 1520Q1230 1520 1434.0 1314.0Q1638 1108 1638 745Q1638 383 1434.0 177.0Q1230 -29 870 -29Q511 -29 306.5 177.0Q102 383 102 745Q102 1108 306.5 1314.0Q511 1520 870 1520Z"/><path transform="translate(23878.00 0)" d="M188 1493H573V291H1249V0H188Z"/><path transform="translate(25183.00 0)" d="M188 1493H573V0H188Z"/><path transform="translate(25945.00 0)" d="M1372 82Q1266 27 1151.0 -1.0Q1036 -29 911 -29Q538 -29 320.0 179.5Q102 388 102 745Q102 1103 320.0 1311.5Q538 1520 911 1520Q1036 1520 1151.0 1492.0Q1266 1464 1372 1409V1100Q1265 1173 1161.0 1207.0Q1057 1241 942 1241Q736 1241 618.0 1109.0Q500 977 500 745Q500 514 618.0 382.0Q736 250 942 250Q1057 250 1161.0 284.0Q1265 318 1372 391Z"/><path transform="translate(27448.00 0)" d="M-20 1493H401L741 961L1081 1493H1503L934 629V0H549V629Z"/><path transform="translate(29644.00 0)" d="M1227 1446V1130Q1104 1185 987.0 1213.0Q870 1241 766 1241Q628 1241 562.0 1203.0Q496 1165 496 1085Q496 1025 540.5 991.5Q585 958 702 934L866 901Q1115 851 1220.0 749.0Q1325 647 1325 459Q1325 212 1178.5 91.5Q1032 -29 731 -29Q589 -29 446.0 -2.0Q303 25 160 78V403Q303 327 436.5 288.5Q570 250 694 250Q820 250 887.0 292.0Q954 334 954 412Q954 482 908.5 520.0Q863 558 727 588L578 621Q354 669 250.5 774.0Q147 879 147 1057Q147 1280 291.0 1400.0Q435 1520 705 1520Q828 1520 958.0 1501.5Q1088 1483 1227 1446Z"/><path transform="translate(31119.00 0)" d="M188 1493H573V0H188Z"/><path transform="translate(31881.00 0)" d="M188 1493H678L1018 694L1360 1493H1849V0H1485V1092L1141 287H897L553 1092V0H188Z"/><path transform="translate(33919.00 0)" d="M188 1493H573V598Q573 413 633.5 333.5Q694 254 831 254Q969 254 1029.5 333.5Q1090 413 1090 598V1493H1475V598Q1475 281 1316.0 126.0Q1157 -29 831 -29Q506 -29 347.0 126.0Q188 281 188 598Z"/><path transform="translate(35582.00 0)" d="M188 1493H573V291H1249V0H188Z"/><path transform="translate(36887.00 0)" d="M1094 272H492L397 0H10L563 1493H1022L1575 0H1188ZM588 549H997L793 1143Z"/><path transform="translate(38472.00 0)" d="M10 1493H1386V1202H891V0H506V1202H10Z"/><path transform="translate(39869.00 0)" d="M188 1493H573V0H188Z"/><path transform="translate(40631.00 0)" d="M870 1241Q694 1241 597.0 1111.0Q500 981 500 745Q500 510 597.0 380.0Q694 250 870 250Q1047 250 1144.0 380.0Q1241 510 1241 745Q1241 981 1144.0 1111.0Q1047 1241 870 1241ZM870 1520Q1230 1520 1434.0 1314.0Q1638 1108 1638 745Q1638 383 1434.0 177.0Q1230 -29 870 -29Q511 -29 306.5 177.0Q102 383 102 745Q102 1108 306.5 1314.0Q511 1520 870 1520Z"/><path transform="translate(42372.00 0)" d="M188 1493H618L1161 469V1493H1526V0H1096L553 1024V0H188Z"/></g><g aria-label="Python  /  GeoPandas  /  React" fill="#586579" transform="translate(25 253) scale(0.0068359 -0.0068359)"><path transform="translate(0.00 0)" d="M403 1327V766H657Q798 766 875.0 839.0Q952 912 952 1047Q952 1181 875.0 1254.0Q798 1327 657 1327ZM201 1493H657Q908 1493 1036.5 1379.5Q1165 1266 1165 1047Q1165 826 1036.5 713.0Q908 600 657 600H403V0H201Z"/><path transform="translate(1235.00 0)" d="M659 -104Q581 -304 507.0 -365.0Q433 -426 309 -426H162V-272H270Q346 -272 388.0 -236.0Q430 -200 481 -66L514 18L61 1120H256L606 244L956 1120H1151Z"/><path transform="translate(2447.00 0)" d="M375 1438V1120H754V977H375V369Q375 232 412.5 193.0Q450 154 565 154H754V0H565Q352 0 271.0 79.5Q190 159 190 369V977H55V1120H190V1438Z"/><path transform="translate(3250.00 0)" d="M1124 676V0H940V670Q940 829 878.0 908.0Q816 987 692 987Q543 987 457.0 892.0Q371 797 371 633V0H186V1556H371V946Q437 1047 526.5 1097.0Q616 1147 733 1147Q926 1147 1025.0 1027.5Q1124 908 1124 676Z"/><path transform="translate(4548.00 0)" d="M627 991Q479 991 393.0 875.5Q307 760 307 559Q307 358 392.5 242.5Q478 127 627 127Q774 127 860.0 243.0Q946 359 946 559Q946 758 860.0 874.5Q774 991 627 991ZM627 1147Q867 1147 1004.0 991.0Q1141 835 1141 559Q1141 284 1004.0 127.5Q867 -29 627 -29Q386 -29 249.5 127.5Q113 284 113 559Q113 835 249.5 991.0Q386 1147 627 1147Z"/><path transform="translate(5801.00 0)" d="M1124 676V0H940V670Q940 829 878.0 908.0Q816 987 692 987Q543 987 457.0 892.0Q371 797 371 633V0H186V1120H371V946Q437 1047 526.5 1097.0Q616 1147 733 1147Q926 1147 1025.0 1027.5Q1124 908 1124 676Z"/><path transform="translate(8401.00 0)" d="M520 1493H690L170 -190H0Z"/><path transform="translate(10393.00 0)" d="M1219 213V614H889V780H1419V139Q1302 56 1161.0 13.5Q1020 -29 860 -29Q510 -29 312.5 175.5Q115 380 115 745Q115 1111 312.5 1315.5Q510 1520 860 1520Q1006 1520 1137.5 1484.0Q1269 1448 1380 1378V1163Q1268 1258 1142.0 1306.0Q1016 1354 877 1354Q603 1354 465.5 1201.0Q328 1048 328 745Q328 443 465.5 290.0Q603 137 877 137Q984 137 1068.0 155.5Q1152 174 1219 213Z"/><path transform="translate(11980.00 0)" d="M1151 606V516H305Q317 326 419.5 226.5Q522 127 705 127Q811 127 910.5 153.0Q1010 179 1108 231V57Q1009 15 905.0 -7.0Q801 -29 694 -29Q426 -29 269.5 127.0Q113 283 113 549Q113 824 261.5 985.5Q410 1147 662 1147Q888 1147 1019.5 1001.5Q1151 856 1151 606ZM967 660Q965 811 882.5 901.0Q800 991 664 991Q510 991 417.5 904.0Q325 817 311 659Z"/><path transform="translate(13240.00 0)" d="M627 991Q479 991 393.0 875.5Q307 760 307 559Q307 358 392.5 242.5Q478 127 627 127Q774 127 860.0 243.0Q946 359 946 559Q946 758 860.0 874.5Q774 991 627 991ZM627 1147Q867 1147 1004.0 991.0Q1141 835 1141 559Q1141 284 1004.0 127.5Q867 -29 627 -29Q386 -29 249.5 127.5Q113 284 113 559Q113 835 249.5 991.0Q386 1147 627 1147Z"/><path transform="translate(14493.00 0)" d="M403 1327V766H657Q798 766 875.0 839.0Q952 912 952 1047Q952 1181 875.0 1254.0Q798 1327 657 1327ZM201 1493H657Q908 1493 1036.5 1379.5Q1165 1266 1165 1047Q1165 826 1036.5 713.0Q908 600 657 600H403V0H201Z"/><path transform="translate(15728.00 0)" d="M702 563Q479 563 393.0 512.0Q307 461 307 338Q307 240 371.5 182.5Q436 125 547 125Q700 125 792.5 233.5Q885 342 885 522V563ZM1069 639V0H885V170Q822 68 728.0 19.5Q634 -29 498 -29Q326 -29 224.5 67.5Q123 164 123 326Q123 515 249.5 611.0Q376 707 627 707H885V725Q885 852 801.5 921.5Q718 991 567 991Q471 991 380.0 968.0Q289 945 205 899V1069Q306 1108 401.0 1127.5Q496 1147 586 1147Q829 1147 949.0 1021.0Q1069 895 1069 639Z"/><path transform="translate(16983.00 0)" d="M1124 676V0H940V670Q940 829 878.0 908.0Q816 987 692 987Q543 987 457.0 892.0Q371 797 371 633V0H186V1120H371V946Q437 1047 526.5 1097.0Q616 1147 733 1147Q926 1147 1025.0 1027.5Q1124 908 1124 676Z"/><path transform="translate(18281.00 0)" d="M930 950V1556H1114V0H930V168Q872 68 783.5 19.5Q695 -29 571 -29Q368 -29 240.5 133.0Q113 295 113 559Q113 823 240.5 985.0Q368 1147 571 1147Q695 1147 783.5 1098.5Q872 1050 930 950ZM303 559Q303 356 386.5 240.5Q470 125 616 125Q762 125 846.0 240.5Q930 356 930 559Q930 762 846.0 877.5Q762 993 616 993Q470 993 386.5 877.5Q303 762 303 559Z"/><path transform="translate(19581.00 0)" d="M702 563Q479 563 393.0 512.0Q307 461 307 338Q307 240 371.5 182.5Q436 125 547 125Q700 125 792.5 233.5Q885 342 885 522V563ZM1069 639V0H885V170Q822 68 728.0 19.5Q634 -29 498 -29Q326 -29 224.5 67.5Q123 164 123 326Q123 515 249.5 611.0Q376 707 627 707H885V725Q885 852 801.5 921.5Q718 991 567 991Q471 991 380.0 968.0Q289 945 205 899V1069Q306 1108 401.0 1127.5Q496 1147 586 1147Q829 1147 949.0 1021.0Q1069 895 1069 639Z"/><path transform="translate(20836.00 0)" d="M907 1087V913Q829 953 745.0 973.0Q661 993 571 993Q434 993 365.5 951.0Q297 909 297 825Q297 761 346.0 724.5Q395 688 543 655L606 641Q802 599 884.5 522.5Q967 446 967 309Q967 153 843.5 62.0Q720 -29 504 -29Q414 -29 316.5 -11.5Q219 6 111 41V231Q213 178 312.0 151.5Q411 125 508 125Q638 125 708.0 169.5Q778 214 778 295Q778 370 727.5 410.0Q677 450 506 487L442 502Q271 538 195.0 612.5Q119 687 119 817Q119 975 231.0 1061.0Q343 1147 549 1147Q651 1147 741.0 1132.0Q831 1117 907 1087Z"/><path transform="translate(23205.00 0)" d="M520 1493H690L170 -190H0Z"/><path transform="translate(25197.00 0)" d="M909 700Q974 678 1035.5 606.0Q1097 534 1159 408L1364 0H1147L956 383Q882 533 812.5 582.0Q743 631 623 631H403V0H201V1493H657Q913 1493 1039.0 1386.0Q1165 1279 1165 1063Q1165 922 1099.5 829.0Q1034 736 909 700ZM403 1327V797H657Q803 797 877.5 864.5Q952 932 952 1063Q952 1194 877.5 1260.5Q803 1327 657 1327Z"/><path transform="translate(26620.00 0)" d="M1151 606V516H305Q317 326 419.5 226.5Q522 127 705 127Q811 127 910.5 153.0Q1010 179 1108 231V57Q1009 15 905.0 -7.0Q801 -29 694 -29Q426 -29 269.5 127.0Q113 283 113 549Q113 824 261.5 985.5Q410 1147 662 1147Q888 1147 1019.5 1001.5Q1151 856 1151 606ZM967 660Q965 811 882.5 901.0Q800 991 664 991Q510 991 417.5 904.0Q325 817 311 659Z"/><path transform="translate(27880.00 0)" d="M702 563Q479 563 393.0 512.0Q307 461 307 338Q307 240 371.5 182.5Q436 125 547 125Q700 125 792.5 233.5Q885 342 885 522V563ZM1069 639V0H885V170Q822 68 728.0 19.5Q634 -29 498 -29Q326 -29 224.5 67.5Q123 164 123 326Q123 515 249.5 611.0Q376 707 627 707H885V725Q885 852 801.5 921.5Q718 991 567 991Q471 991 380.0 968.0Q289 945 205 899V1069Q306 1108 401.0 1127.5Q496 1147 586 1147Q829 1147 949.0 1021.0Q1069 895 1069 639Z"/><path transform="translate(29135.00 0)" d="M999 1077V905Q921 948 842.5 969.5Q764 991 684 991Q505 991 406.0 877.5Q307 764 307 559Q307 354 406.0 240.5Q505 127 684 127Q764 127 842.5 148.5Q921 170 999 213V43Q922 7 839.5 -11.0Q757 -29 664 -29Q411 -29 262.0 130.0Q113 289 113 559Q113 833 263.5 990.0Q414 1147 676 1147Q761 1147 842.0 1129.5Q923 1112 999 1077Z"/><path transform="translate(30261.00 0)" d="M375 1438V1120H754V977H375V369Q375 232 412.5 193.0Q450 154 565 154H754V0H565Q352 0 271.0 79.5Q190 159 190 369V977H55V1120H190V1438Z"/></g><g transform="translate(480 20)" fill="none" stroke="#AA711B" stroke-width="2" stroke-linecap="round" stroke-linejoin="round"><path d="M14 29S3 18 3 10a11 11 0 0 1 22 0c0 8-11 19-11 19Z"/><circle cx="14" cy="10" r="4"/></g>
</svg>